<?xml version="1.0" encoding="utf-8" standalone="no"?>
<svg
	version="1.1" xmlns="http://www.w3.org/2000/svg" xmlns:xlink="http://www.w3.org/1999/xlink"
	viewBox="-0.02 -0.02 1.04 1.04" width="300" height="300" style="background-color:white; user-select:none; transform: scaleY(-1.0);" >
	<rect x="0.0" y="0.0" width="1.0" height="1.0" fill="none" stroke="gray" stroke-width="0.0025px" />
	<path d="M0.0000, 0.0000 C0.0103, 0.1055 0.0207, 0.2110 0.0310, 0.3010" fill="none" stroke="black" stroke-width="0.005px" />
	<path d="M0.0310, 0.3010 C0.1042, 0.9393 0.1774, 0.8030 0.2507, 0.7504" fill="none" stroke="black" stroke-width="0.005px" />
	<path d="M0.2507, 0.7504 C0.4007, 0.6425 0.5508, 0.8857 0.7008, 0.9706" fill="none" stroke="black" stroke-width="0.005px" />
	<path d="M0.7008, 0.9706 C0.8005, 1.0271 0.9003, 1.0135 1.0000, 1.0000" fill="none" stroke="black" stroke-width="0.005px" />
	<rect x="0.0000" y="0.0000" width="0.03" height="0.03" fill="lime" transform="translate(-0.015, -0.015)" />
	<rect x="0.0310" y="0.3010" width="0.03" height="0.03" fill="red" transform="translate(-0.015, -0.015)" />
	<rect x="0.2507" y="0.7504" width="0.03" height="0.03" fill="red" transform="translate(-0.015, -0.015)" />
	<rect x="0.7008" y="0.9706" width="0.03" height="0.03" fill="red" transform="translate(-0.015, -0.015)" />
	<rect x="1.0000" y="1.0000" width="0.03" height="0.03" fill="lime" transform="translate(-0.015, -0.015)" />
</svg>
