<?xml version="1.0" encoding="utf-8" standalone="no"?>
<svg
	version="1.1" xmlns="http://www.w3.org/2000/svg" xmlns:xlink="http://www.w3.org/1999/xlink"
	viewBox="-0.02 -0.02 1.04 1.04" width="300" height="300" style="background-color:white; user-select:none; transform: scaleY(-1.0);" >
	<rect x="0.0" y="0.0" width="1.0" height="1.0" fill="none" stroke="gray" stroke-width="0.0025px" />
	<path d="M0.0000, 0.0000 C0.0501, 0.1255 0.1002, 0.2509 0.1503, 0.3504" fill="none" stroke="black" stroke-width="0.005px" />
	<path d="M0.1503, 0.3504 C0.2170, 0.4826 0.2836, 0.5875 0.3502, 0.6506" fill="none" stroke="black" stroke-width="0.005px" />
	<path d="M0.3502, 0.6506 C0.4503, 0.7454 0.5503, 0.8025 0.6503, 0.8504" fill="none" stroke="black" stroke-width="0.005px" />
	<path d="M0.6503, 0.8504 C0.7669, 0.9062 0.8834, 0.9531 1.0000, 1.0000" fill="none" stroke="black" stroke-width="0.005px" />
	<rect x="0.0000" y="0.0000" width="0.03" height="0.03" fill="lime" transform="translate(-0.015, -0.015)" />
	<rect x="0.1503" y="0.3504" width="0.03" height="0.03" fill="red" transform="translate(-0.015, -0.015)" />
	<rect x="0.3502" y="0.6506" width="0.03" height="0.03" fill="red" transform="translate(-0.015, -0.015)" />
	<rect x="0.6503" y="0.8504" width="0.03" height="0.03" fill="red" transform="translate(-0.015, -0.015)" />
	<rect x="1.0000" y="1.0000" width="0.03" height="0.03" fill="lime" transform="translate(-0.015, -0.015)" />
</svg>
