<?xml version="1.0" encoding="utf-8" standalone="no"?>
<svg
	version="1.1" xmlns="http://www.w3.org/2000/svg" xmlns:xlink="http://www.w3.org/1999/xlink"
	viewBox="-0.02 -0.02 1.04 1.04" width="300" height="300" style="background-color:white; user-select:none; transform: scaleY(-1.0);" >
	<rect x="0.0" y="0.0" width="1.0" height="1.0" fill="none" stroke="gray" stroke-width="0.0025px" />
	<path d="M0.0000, 0.0000 C0.0668, 0.0295 0.1337, 0.0590 0.2005, 0.1013" fill="none" stroke="black" stroke-width="0.005px" />
	<path d="M0.2005, 0.1013 C0.2673, 0.1436 0.3342, 0.2044 0.4010, 0.3010" fill="none" stroke="black" stroke-width="0.005px" />
	<path d="M0.4010, 0.3010 C0.4340, 0.3487 0.4670, 0.4247 0.5000, 0.5007" fill="none" stroke="black" stroke-width="0.005px" />
	<path d="M0.5000, 1.0000 C0.5670, 0.9424 0.6341, 0.8848 0.7011, 0.8003" fill="none" stroke="black" stroke-width="0.005px" />
	<path d="M0.7011, 0.8003 C0.7676, 0.7166 0.8340, 0.5940 0.9004, 0.4009" fill="none" stroke="black" stroke-width="0.005px" />
	<path d="M0.9004, 0.4009 C0.9336, 0.3043 0.9668, 0.1522 1.0000, 0.0000" fill="none" stroke="black" stroke-width="0.005px" />
	<rect x="0.0000" y="0.0000" width="0.03" height="0.03" fill="lime" transform="translate(-0.015, -0.015)" />
	<rect x="0.2005" y="0.1013" width="0.03" height="0.03" fill="red" transform="translate(-0.015, -0.015)" />
	<rect x="0.4010" y="0.3010" width="0.03" height="0.03" fill="red" transform="translate(-0.015, -0.015)" />
	<rect x="0.5000" y="0.5007" width="0.03" height="0.03" fill="lime" transform="translate(-0.015, -0.015)" />
	<rect x="0.5000" y="1.0000" width="0.03" height="0.03" fill="lime" transform="translate(-0.015, -0.015)" />
	<rect x="0.7011" y="0.8003" width="0.03" height="0.03" fill="red" transform="translate(-0.015, -0.015)" />
	<rect x="0.9004" y="0.4009" width="0.03" height="0.03" fill="red" transform="translate(-0.015, -0.015)" />
	<rect x="1.0000" y="0.0000" width="0.03" height="0.03" fill="lime" transform="translate(-0.015, -0.015)" />
</svg>
