<?xml version="1.0" encoding="utf-8" standalone="no"?>
<svg
	version="1.1" xmlns="http://www.w3.org/2000/svg" xmlns:xlink="http://www.w3.org/1999/xlink"
	viewBox="-0.02 -0.02 1.04 1.04" width="500" height="500" style="background-color:white; user-select:none; transform: scaleY(-1.0);" >
	<rect x="0.0" y="0.0" width="1.0" height="1.0" fill="none" stroke="gray" stroke-width="0.0025px" />
	<path d="M0.0000, 0.0000 C0.1000, 0.0837 0.2001, 0.1665 0.3001, 0.4009" fill="none" stroke="black" stroke-width="0.005px" />
	<path d="M0.3001, 0.4009 C0.3670, 0.5574 0.4338, 1.0000 0.5006, 1.0000" fill="none" stroke="black" stroke-width="0.005px" />
	<path d="M0.5006, 1.0000 C0.5675, 1.0000 0.6343, 0.5579 0.7011, 0.4009" fill="none" stroke="black" stroke-width="0.005px" />
	<path d="M0.7011, 0.4009 C0.8008, 0.1668 0.9004, 0.0834 1.0000, 0.0000" fill="none" stroke="black" stroke-width="0.005px" />
	<rect x="0.0000" y="0.0000" width="0.03" height="0.03" fill="lime" transform="translate(-0.015, -0.015)" />
	<rect x="0.3001" y="0.4009" width="0.03" height="0.03" fill="red" transform="translate(-0.015, -0.015)" />
	<rect x="0.5006" y="1.0000" width="0.03" height="0.03" fill="red" transform="translate(-0.015, -0.015)" />
	<rect x="0.7011" y="0.4009" width="0.03" height="0.03" fill="red" transform="translate(-0.015, -0.015)" />
	<rect x="1.0000" y="0.0000" width="0.03" height="0.03" fill="lime" transform="translate(-0.015, -0.015)" />
</svg>
